<svg xmlns="http://www.w3.org/2000/svg" viewBox="0 0 1238.522 446.845" shape-rendering="geometricPrecision" xmlns:v="https://vecta.io/nano"><style><![CDATA[#A{animation:erU8PmOd1jM2_to__to 3000ms linear infinite normal forwards}#B{animation:erU8PmOd1jM29_to__to 3000ms linear infinite normal forwards}@keyframes erU8PmOd1jM2_to__to{0%{transform:translate(-492.908813px,58.791919px);animation-timing-function:cubic-bezier(0.42,0,0.58,1)}26.666667%{transform:translate(-512.908813px,58.791919px);animation-timing-function:cubic-bezier(0.42,0,0.58,1)}66.666667%{transform:translate(-482.908813px,58.791919px);animation-timing-function:cubic-bezier(0.42,0,0.58,1)}100%{transform:translate(-492.908813px,58.791919px)}} @keyframes erU8PmOd1jM29_to__to{0%{transform:translate(387.982239px,58.2737px)}100%{transform:translate(-1101.37091px,58.273708px)}} @keyframes erU8PmOd1jM510_tr__tr{0%{transform:translate(135.33781px,207.03926px) rotate(720deg);animation-timing-function:cubic-bezier(0.415,0.08,0.115,0.955)}100%{transform:translate(135.33781px,207.03926px) rotate(439.480519deg)}} @keyframes erU8PmOd1jM511_tr__tr{0%{transform:translate(11.12px,29.9px) rotate(-720deg);animation-timing-function:cubic-bezier(0.415,0.08,0.115,0.955)}100%{transform:translate(11.12px,29.9px) rotate(-439.480519deg)}}.B{fill:none}.C{stroke:#000}.D{stroke-linejoin:round}.E{stroke-linecap:round}.F{stroke-width:3.65}.G{stroke-width:4}.H{stroke:#fff}.I{stroke-width:1.5}.J{stroke-width:7.5}.K{stroke-linecap:square}.L{stroke-width:1.825}]]></style><g id="A" transform="translate(-492.909 58.792)" class="C"><g><path d="M1305.898 169.571v-28.419c-.043-2.747 2.275-2.747 2.275-2.747h69.474c20.946 0 57.094 6.175 57.01 33.485-.01 1.986-1.202 2.576-1.202 2.576l-124.551-2.044c-3.048.086-3.006-2.85-3.006-2.85z" fill="#fff" class="D G"/><path d="M1376.222 144.602c0 1.544 2.037 12.396 16.422 11.891 10.776-.378 26.206-.086 26.206-.086 1.116 0 2.802-1.233.901-2.747-2.593-2.066-17.006-10.667-41.083-11.29-1.762-.211-2.489.423-2.447 2.232z" class="B I"/><rect width="58.951" height="11.899" rx="3.924" paint-order="stroke fill markers" x="1310.35" y="145.293" class="B D I"/><path d="M1323.72 145.373v11.899m15.481-11.808v11.748m15.572-11.96v11.839" class="B I"/><path d="M1326.032 173.628a5.56 5.56 0 0 1-8.367 4.798 5.56 5.56 0 0 1-2.752-4.847l5.559.048h5.559z" paint-order="stroke fill markers" class="B D I"/><path d="M1399.094 173.628a5.56 5.56 0 0 1-8.367 4.798 5.56 5.56 0 0 1-2.752-4.847l5.559.048h5.559z" paint-order="stroke fill markers" class="B D I"/><path d="M1415 173.628a5.56 5.56 0 0 1-8.367 4.798 5.56 5.56 0 0 1-2.752-4.847l5.559.048H1415z" paint-order="stroke fill markers" class="B D I"/><rect width="134.901" height="34.059" rx="3.924" paint-order="markers fill stroke" fill="#fff" x="1166.51" y="138.179" class="D G"/><path d="M1021.668 169.714v-28.419c.043-2.747-2.275-2.747-2.275-2.747h-69.474c-20.946 0-57.094 6.175-57.01 33.485.006 1.986 1.202 2.576 1.202 2.576l124.551-2.044c3.048.086 3.006-2.85 3.006-2.85z" class="B D G"/><path d="M951.344 144.744c0 1.544-2.037 12.396-16.423 11.891-10.776-.378-26.206-.086-26.206-.086-1.116 0-2.802-1.233-.902-2.747 2.593-2.066 17.006-10.667 41.083-11.29 1.762-.211 2.489.423 2.447 2.232z" class="B I"/><rect width="58.951" height="11.899" rx="3.924" transform="matrix(-1 0 0 1 1017.22 145.436)" paint-order="stroke fill markers" class="B D I"/><path d="M1003.846 145.516v11.899m-15.481-11.808v11.748m-15.572-11.96v11.839" class="B I"/><path d="M-1001.534 173.771a5.56 5.56 0 0 1-8.367 4.798 5.56 5.56 0 0 1-2.752-4.847l5.559.048h5.559z" transform="scale(-1 1)" paint-order="stroke fill markers" class="B D I"/><path d="M-1001.534 173.771a5.56 5.56 0 0 1-8.367 4.798 5.56 5.56 0 0 1-2.752-4.847l5.559.048h5.559z" transform="matrix(-1 0 0 1 32.260378 -.14251)" paint-order="stroke fill markers" class="B D I"/><path d="M-1001.534 173.771a5.56 5.56 0 0 1-8.367 4.798 5.56 5.56 0 0 1-2.752-4.847l5.559.048h5.559z" transform="matrix(-1 0 0 1 140.879527 -.405884)" paint-order="stroke fill markers" class="B D I"/><path d="M-1001.534 173.771a5.56 5.56 0 0 1-8.367 4.798 5.56 5.56 0 0 1-2.752-4.847l5.559.048h5.559z" transform="matrix(-1 0 0 1 175.156189 -.14251)" paint-order="stroke fill markers" class="B D I"/><path d="M-1001.534 173.771a5.56 5.56 0 0 1-8.367 4.798 5.56 5.56 0 0 1-2.752-4.847l5.559.048h5.559z" transform="matrix(-1 0 0 1 277.665891 -.142502)" paint-order="stroke fill markers" class="B D I"/><path d="M-928.472 173.771a5.56 5.56 0 0 1-8.367 4.798 5.56 5.56 0 0 1-2.752-4.847l5.559.048h5.559z" transform="scale(-1 1)" paint-order="stroke fill markers" class="B D I"/><path d="M-912.566 173.771a5.56 5.56 0 0 1-8.367 4.798 5.56 5.56 0 0 1-2.752-4.847l5.559.048h5.559z" transform="scale(-1 1)" paint-order="stroke fill markers" class="B D I"/><rect width="103.756" height="11.899" rx="3.924" paint-order="stroke fill markers" x="1182.25" y="145.293" class="B D I"/><path d="M1195.619 145.373v11.899m15.481-11.808v11.748m15.572-11.96v11.839m15.045-11.646v11.376m15.798-11.248v11.891m15.669-11.977v11.634" class="B I"/><rect width="134.901" height="34.059" rx="3.924" fill="#fff" x="1026.14" y="138.179" class="D G"/><rect width="103.756" height="11.899" rx="3.924" paint-order="stroke fill markers" x="1041.88" y="145.293" class="B D I"/><path d="M1055.254 145.373v11.899m15.481-11.808v11.748m15.572-11.96v11.839m15.045-11.646v11.376m15.798-11.248v11.891m15.669-11.977v11.634" class="B I"/><path d="M1362.307 138.49l-18.767-10.835 18.754-10.828" stroke-width="3" class="B D E"/><path d="M1350.82 117.336c1.095-.773 2.576-.778 2.576-.778h7.457 5.636s1.245.048 1.846.713" stroke-width="3" class="B D E"/></g></g><g id="B" transform="translate(387.982 58.274)" class="B"><g><path d="M-15.785 71.761v104.849" class="C D J K"/><path d="M-15.785 94.467v4.796" class="D E G H"/><path d="M-15.785 105.698v4.796" class="D E G H"/><path d="M-15.785 117.173v4.796" class="D E G H"/><path d="M-15.785 129.006v4.796" class="D E G H"/><path d="M-15.785 141.682v4.796" class="D E G H"/><path d="M-15.785 153.601v4.796" class="D E G H"/><path d="M-15.785 165.135v4.796" class="D E G H"/><path d="M-15.785 176.609v4.796" class="D E G H"/><path d="M-201.013 114.951h-185.348" class="C"/><path d="M-386.604 85.809s77.831 18.891 185.777 19.032" class="C"/><path d="M-363.898 90.423v24.527m21.249-20.399v20.642" class="C"/><path d="M-320.186 97.149v18.045m21.249-15.591v15.834" class="C"/><path d="M-276.473 101.727v13.709m21.249-12.242v11.927" class="C"/><path d="M-232.761 104.159v11.048m21.249-10.912v10.854" class="C"/><path d="M-201.013 114.951h185.348" class="C"/><path d="M-15.422 85.809s-77.831 18.891-185.777 19.032" class="C E"/><path d="M-38.128 90.423v24.527m-21.249-20.399v20.642" class="C"/><path d="M-81.84 97.149v18.045m-21.249-15.591v15.834" class="C"/><path d="M-125.552 101.727v13.709m-21.249-12.242v11.927" class="C"/><path d="M-169.264 104.159v11.048m-21.249-10.912v10.854" class="C"/><path d="M170.17 114.951H-15.664" class="C"/><path d="M-15.422 85.809S62.41 104.7 170.355 104.841" class="C E"/><path d="M7.284 90.423v24.527m21.249-20.399v20.642" class="C"/><path d="M50.997 97.149v18.045m21.249-15.591v15.834" class="C"/><path d="M94.709 101.727v13.709m21.249-12.242v11.927" class="C"/><path d="M138.421 104.159v11.048m21.249-10.912v10.854" class="C"/><path d="M170.17 114.951h185.348" class="C"/><path d="M355.761 85.809s-77.831 18.891-185.777 19.032" class="C"/><path d="M333.055 90.423v24.527m-21.249-20.399v20.642" class="C"/><path d="M289.343 97.149v18.045m-21.249-15.591v15.834" class="C"/><path d="M245.63 101.727v13.709m-21.249-12.242v11.927" class="C"/><path d="M201.918 104.159v11.048m-21.249-10.912v10.854" class="C"/><path d="M-15.422 85.809l.243 29.141" class="C"/><path d="M356.74 71.761v104.849" class="C D J K"/><path d="M356.74 94.467v4.796" class="D E G H"/><path d="M356.74 105.698v4.796" class="D E G H"/><path d="M356.74 117.173v4.796" class="D E G H"/><path d="M356.74 129.006v4.796" class="D E G H"/><path d="M356.74 141.682v4.796" class="D E G H"/><path d="M356.74 153.601v4.796" class="D E G H"/><path d="M356.74 165.135v4.796" class="D E G H"/><path d="M356.74 176.609v4.796" class="D E G H"/><path d="M-387.824 71.761v104.849" class="C D J K"/><path d="M-387.824 94.467v4.796" class="D E G H"/><path d="M-387.824 105.698v4.796" class="D E G H"/><path d="M-387.824 117.173v4.796" class="D E G H"/><path d="M-387.824 129.006v4.796" class="D E G H"/><path d="M-387.824 141.682v4.796" class="D E G H"/><path d="M-387.824 153.601v4.796" class="D E G H"/><path d="M-387.824 165.135v4.796" class="D E G H"/><path d="M-387.824 176.609v4.796" class="D E G H"/><path d="M-387.982 180.716h744.983" class="C L"/><path d="M354.33 182.635h-3.721" class="C D E F"/><path d="M343.207 182.635h-3.721" class="C D E F"/><path d="M331.965 182.635h-3.721" class="C D E F"/><path d="M320.293 182.635h-3.721" class="C D E F"/><path d="M309.17 182.635h-3.721" class="C D E F"/><path d="M296.984 182.635h-3.721" class="C D E F"/><path d="M285.312 182.635h-3.721" class="C D E F"/><path d="M274.189 182.635h-3.721" class="C D E F"/><path d="M262.947 182.635h-3.721" class="C D E F"/><path d="M251.275 182.635h-3.721" class="C D E F"/><path d="M240.152 182.635h-3.721" class="C D E F"/><path d="M228.188 182.635h-3.721" class="C D E F"/><path d="M216.516 182.635h-3.721" class="C D E F"/><path d="M205.392 182.635h-3.721" class="C D E F"/><path d="M194.151 182.635h-3.721" class="C D E F"/><path d="M182.479 182.635h-3.721" class="C D E F"/><path d="M171.355 182.635h-3.721" class="C D E F"/><path d="M159.17 182.635h-3.721" class="C D E F"/><path d="M147.498 182.635h-3.721" class="C D E F"/><path d="M136.374 182.635h-3.721" class="C D E F"/><path d="M125.133 182.635h-3.721" class="C D E F"/><path d="M113.461 182.635h-3.721" class="C D E F"/><path d="M102.337 182.635h-3.721" class="C D E F"/><path d="M90.373 182.635h-3.721" class="C D E F"/><path d="M78.701 182.635H74.98" class="C D E F"/><path d="M67.578 182.635h-3.721" class="C D E F"/><path d="M56.337 182.635h-3.721" class="C D E F"/><path d="M44.665 182.635h-3.721" class="C D E F"/><path d="M33.541 182.635H29.82" class="C D E F"/><path d="M21.355 182.635h-3.721" class="C D E F"/><path d="M9.683 182.635H5.962" class="C D E F"/><path d="M-1.44 182.635h-3.721" class="C D E F"/><path d="M-12.681 182.635h-3.721" class="C D E F"/><path d="M-24.353 182.635h-3.721" class="C D E F"/><path d="M-35.477 182.635h-3.721" class="C D E F"/><path d="M-47.441 182.635h-3.721" class="C D E F"/><path d="M-59.113 182.635h-3.721" class="C D E F"/><path d="M-70.237 182.635h-3.721" class="C D E F"/><path d="M-81.478 182.635h-3.721" class="C D E F"/><path d="M-93.15 182.635h-3.721" class="C D E F"/><path d="M-104.274 182.635h-3.721" class="C D E F"/><path d="M-116.459 182.635h-3.721" class="C D E F"/><path d="M-128.131 182.635h-3.721" class="C D E F"/><path d="M-139.255 182.635h-3.721" class="C D E F"/><path d="M-150.496 182.635h-3.721" class="C D E F"/><path d="M-162.168 182.635h-3.721" class="C D E F"/><path d="M-173.292 182.635h-3.721" class="C D E F"/><path d="M-184.657 182.635h-3.721" class="C D E F"/><path d="M-196.329 182.635h-3.721" class="C D E F"/><path d="M-207.452 182.635h-3.721" class="C D E F"/><path d="M-218.693 182.635h-3.721" class="C D E F"/><path d="M-230.365 182.635h-3.721" class="C D E F"/><path d="M-241.489 182.635h-3.721" class="C D E F"/><path d="M-253.675 182.635h-3.721" class="C D E F"/><path d="M-265.347 182.635h-3.721" class="C D E F"/><path d="M-276.47 182.635h-3.721" class="C D E F"/><path d="M-287.711 182.635h-3.721" class="C D E F"/><path d="M-299.383 182.635h-3.721" class="C D E F"/><path d="M-310.507 182.635h-3.721" class="C D E F"/><path d="M-322.471 182.635h-3.721" class="C D E F"/><path d="M-334.143 182.635h-3.721" class="C D E F"/><path d="M-345.267 182.635h-3.721" class="C D E F"/><path d="M-356.508 182.635h-3.721" class="C D E F"/><path d="M-368.18 182.635h-3.721" class="C D E F"/><path d="M-379.303 182.635h-3.721" class="C D E F"/><path d="M355.761 85.809l-.243 29.141" class="C"/><path d="M-386.604 85.809l.243 29.141" class="C"/><path d="M728.779 71.761v104.849" class="C D J K"/><path d="M728.779 94.467v4.796" class="D E G H"/><path d="M728.779 105.698v4.796" class="D E G H"/><path d="M728.779 117.173v4.796" class="D E G H"/><path d="M728.779 129.006v4.796" class="D E G H"/><path d="M728.779 141.682v4.796" class="D E G H"/><path d="M728.779 153.601v4.796" class="D E G H"/><path d="M728.779 165.135v4.796" class="D E G H"/><path d="M728.779 176.609v4.796" class="D E G H"/><path d="M543.551 114.951H358.203" class="C"/><path d="M357.96 85.809s77.831 18.891 185.777 19.032" class="C"/><path d="M380.666 90.423v24.527m21.249-20.399v20.642" class="C"/><path d="M424.379 97.149v18.045m21.249-15.591v15.834" class="C"/><path d="M468.091 101.727v13.709m21.249-12.242v11.927" class="C"/><path d="M511.803 104.159v11.048m21.249-10.912v10.854" class="C"/><path d="M543.551 114.951H728.9" class="C"/><path d="M729.143 85.809s-77.831 18.891-185.777 19.032" class="C E"/><path d="M706.437 90.423v24.527m-21.249-20.399v20.642" class="C"/><path d="M662.724 97.149v18.045m-21.249-15.591v15.834" class="C"/><path d="M619.012 101.727v13.709m-21.249-12.242v11.927" class="C"/><path d="M575.3 104.159v11.048m-21.249-10.912v10.854" class="C"/><path d="M914.734 114.951H728.9" class="C"/><path d="M729.143 85.809s77.831 18.891 185.777 19.032" class="C E"/><path d="M751.849 90.423v24.527m21.249-20.399v20.642" class="C"/><path d="M795.561 97.149v18.045m21.249-15.591v15.834" class="C"/><path d="M839.273 101.727v13.709m21.249-12.242v11.927" class="C"/><path d="M882.985 104.159v11.048m21.249-10.912v10.854" class="C"/><path d="M914.734 114.951h185.348" class="C"/><path d="M1100.325 85.809s-77.831 18.891-185.777 19.032" class="C"/><path d="M1077.619 90.423v24.527m-21.249-20.399v20.642" class="C"/><path d="M1033.907 97.149v18.045m-21.249-15.591v15.834" class="C"/><path d="M990.195 101.727v13.709m-21.249-12.242v11.927" class="C"/><path d="M946.482 104.159v11.048m-21.249-10.912v10.854" class="C"/><path d="M729.143 85.809l.243 29.141" class="C"/><path d="M1101.304 71.761v104.849" class="C D J K"/><path d="M1101.304 94.467v4.796" class="D E G H"/><path d="M1101.304 105.698v4.796" class="D E G H"/><path d="M1101.304 117.173v4.796" class="D E G H"/><path d="M1101.304 129.006v4.796" class="D E G H"/><path d="M1101.304 141.682v4.796" class="D E G H"/><path d="M1101.304 153.601v4.796" class="D E G H"/><path d="M1101.304 165.135v4.796" class="D E G H"/><path d="M1101.304 176.609v4.796" class="D E G H"/><path d="M356.74 94.467v4.796" class="D E G H"/><path d="M356.74 105.698v4.796" class="D E G H"/><path d="M356.74 117.173v4.796" class="D E G H"/><path d="M356.74 129.006v4.796" class="D E G H"/><path d="M356.74 141.682v4.796" class="D E G H"/><path d="M356.74 153.601v4.796" class="D E G H"/><path d="M356.74 165.135v4.796" class="D E G H"/><path d="M356.582 180.716h744.983" class="C L"/><path d="M1098.894 182.635h-3.721" class="C D E F"/><path d="M1087.771 182.635h-3.721" class="C D E F"/><path d="M1076.53 182.635h-3.721" class="C D E F"/><path d="M1064.858 182.635h-3.721" class="C D E F"/><path d="M1053.734 182.635h-3.721" class="C D E F"/><path d="M1041.548 182.635h-3.721" class="C D E F"/><path d="M1029.876 182.635h-3.721" class="C D E F"/><path d="M1018.753 182.635h-3.721" class="C D E F"/><path d="M1007.512 182.635h-3.721" class="C D E F"/><path d="M995.84 182.635h-3.721" class="C D E F"/><path d="M984.716 182.635h-3.721" class="C D E F"/><path d="M972.752 182.635h-3.721" class="C D E F"/><path d="M961.08 182.635h-3.721" class="C D E F"/><path d="M949.956 182.635h-3.721" class="C D E F"/><path d="M938.715 182.635h-3.721" class="C D E F"/><path d="M927.043 182.635h-3.721" class="C D E F"/><path d="M915.919 182.635h-3.721" class="C D E F"/><path d="M903.734 182.635h-3.721" class="C D E F"/><path d="M892.062 182.635h-3.721" class="C D E F"/><path d="M880.938 182.635h-3.721" class="C D E F"/><path d="M869.697 182.635h-3.721" class="C D E F"/><path d="M858.025 182.635h-3.721" class="C D E F"/><path d="M846.902 182.635h-3.721" class="C D E F"/><path d="M834.938 182.635h-3.721" class="C D E F"/><path d="M823.266 182.635h-3.721" class="C D E F"/><path d="M812.142 182.635h-3.721" class="C D E F"/><path d="M800.901 182.635h-3.721" class="C D E F"/><path d="M789.229 182.635h-3.721" class="C D E F"/><path d="M778.105 182.635h-3.721" class="C D E F"/><path d="M765.92 182.635h-3.721" class="C D E F"/><path d="M754.248 182.635h-3.721" class="C D E F"/><path d="M743.124 182.635h-3.721" class="C D E F"/><path d="M731.883 182.635h-3.721" class="C D E F"/><path d="M720.211 182.635h-3.721" class="C D E F"/><path d="M709.087 182.635h-3.721" class="C D E F"/><path d="M697.123 182.635h-3.721" class="C D E F"/><path d="M685.451 182.635h-3.721" class="C D E F"/><path d="M674.327 182.635h-3.721" class="C D E F"/><path d="M663.086 182.635h-3.721" class="C D E F"/><path d="M651.414 182.635h-3.721" class="C D E F"/><path d="M640.291 182.635h-3.721" class="C D E F"/><path d="M628.105 182.635h-3.721" class="C D E F"/><path d="M616.433 182.635h-3.721" class="C D E F"/><path d="M605.309 182.635h-3.721" class="C D E F"/><path d="M594.068 182.635h-3.721" class="C D E F"/><path d="M582.396 182.635h-3.721" class="C D E F"/><path d="M571.273 182.635h-3.721" class="C D E F"/><path d="M559.908 182.635h-3.721" class="C D E F"/><path d="M548.236 182.635h-3.721" class="C D E F"/><path d="M537.112 182.635h-3.721" class="C D E F"/><path d="M525.871 182.635h-3.721" class="C D E F"/><path d="M514.199 182.635h-3.721" class="C D E F"/><path d="M503.075 182.635h-3.721" class="C D E F"/><path d="M490.89 182.635h-3.721" class="C D E F"/><path d="M479.218 182.635h-3.721" class="C D E F"/><path d="M468.094 182.635h-3.721" class="C D E F"/><path d="M456.853 182.635h-3.721" class="C D E F"/><path d="M445.181 182.635h-3.721" class="C D E F"/><path d="M434.057 182.635h-3.721" class="C D E F"/><path d="M422.093 182.635h-3.721" class="C D E F"/><path d="M410.421 182.635H406.7" class="C D E F"/><path d="M399.298 182.635h-3.721" class="C D E F"/><path d="M388.056 182.635h-3.721" class="C D E F"/><path d="M376.384 182.635h-3.721" class="C D E F"/><path d="M365.261 182.635h-3.721" class="C D E F"/><path d="M1100.325 85.809l-.243 29.141" class="C"/><path d="M357.96 85.809l.243 29.141" class="C"/><path d="M1473.374 71.79v104.849" class="C D J K"/><path d="M1473.374 94.496v4.796" class="D E G H"/><path d="M1473.374 105.728v4.796" class="D E G H"/><path d="M1473.374 117.202v4.796" class="D E G H"/><path d="M1473.374 129.035v4.796" class="D E G H"/><path d="M1473.374 141.711v4.796" class="D E G H"/><path d="M1473.374 153.63v4.796" class="D E G H"/><path d="M1473.374 165.164v4.796" class="D E G H"/><path d="M1473.374 176.638v4.796" class="D E G H"/><path d="M1288.146 114.98h-185.348" class="C"/><path d="M1102.555 85.838s77.831 18.891 185.777 19.032" class="C"/><path d="M1125.261 90.452v24.527m21.249-20.399v20.642" class="C"/><path d="M1168.973 97.178v18.045m21.249-15.591v15.834" class="C"/><path d="M1212.685 101.756v13.709m21.249-12.242v11.927" class="C"/><path d="M1256.398 104.189v11.048m21.249-10.912v10.854" class="C"/><path d="M1288.146 114.98h185.348" class="C"/><path d="M1473.737 85.838s-77.831 18.891-185.777 19.032" class="C E"/><path d="M1451.031 90.452v24.527m-21.249-20.399v20.642" class="C"/><path d="M1407.319 97.178v18.045m-21.249-15.591v15.834" class="C"/><path d="M1363.607 101.756v13.709m-21.249-12.242v11.927" class="C"/><path d="M1319.895 104.189v11.048m-21.249-10.912v10.854" class="C"/><path d="M1659.328 114.98h-185.834" class="C"/><path d="M1473.737 85.838s77.832 18.891 185.777 19.032" class="C E"/><path d="M1496.443 90.452v24.527m21.249-20.399v20.642" class="C"/><path d="M1540.155 97.178v18.045m21.249-15.591v15.834" class="C"/><path d="M1583.868 101.756v13.709m21.249-12.242v11.927" class="C"/><path d="M1627.58 104.189v11.048m21.249-10.912v10.854" class="C"/><path d="M1659.328 114.98h185.348" class="C"/><path d="M1844.92 85.838s-77.831 18.891-185.777 19.032" class="C"/><path d="M1822.214 90.452v24.527m-21.249-20.399v20.642" class="C"/><path d="M1778.501 97.178v18.045m-21.249-15.591v15.834" class="C"/><path d="M1734.789 101.756v13.709m-21.249-12.242v11.927" class="C"/><path d="M1691.077 104.189v11.048m-21.249-10.912v10.854" class="C"/><path d="M1473.737 85.838l.243 29.141" class="C"/><path d="M1845.899 71.79v104.849" class="C D J K"/><path d="M1845.899 94.496v4.796" class="D E G H"/><path d="M1845.899 105.728v4.796" class="D E G H"/><path d="M1845.899 117.202v4.796" class="D E G H"/><path d="M1845.899 129.035v4.796" class="D E G H"/><path d="M1845.899 141.711v4.796" class="D E G H"/><path d="M1845.899 153.63v4.796" class="D E G H"/><path d="M1845.899 165.164v4.796" class="D E G H"/><path d="M1845.899 176.638v4.796" class="D E G H"/><path d="M1101.335 94.496v4.796" class="D E G H"/><path d="M1101.335 105.728v4.796" class="D E G H"/><path d="M1101.335 117.202v4.796" class="D E G H"/><path d="M1101.335 129.035v4.796" class="D E G H"/><path d="M1101.335 141.711v4.796" class="D E G H"/><path d="M1101.335 153.63v4.796" class="D E G H"/><path d="M1101.335 165.164v4.796" class="D E G H"/><path d="M1101.177 180.745h744.983" class="C L"/><path d="M1843.489 182.664h-3.721" class="C D E F"/><path d="M1832.365 182.664h-3.721" class="C D E F"/><path d="M1821.124 182.664h-3.721" class="C D E F"/><path d="M1809.452 182.664h-3.721" class="C D E F"/><path d="M1798.329 182.664h-3.721" class="C D E F"/><path d="M1786.143 182.664h-3.721" class="C D E F"/><path d="M1774.471 182.664h-3.721" class="C D E F"/><path d="M1763.347 182.664h-3.721" class="C D E F"/><path d="M1752.106 182.664h-3.721" class="C D E F"/><path d="M1740.434 182.664h-3.721" class="C D E F"/><path d="M1729.311 182.664h-3.721" class="C D E F"/><path d="M1717.347 182.664h-3.721" class="C D E F"/><path d="M1705.675 182.664h-3.721" class="C D E F"/><path d="M1694.551 182.664h-3.721" class="C D E F"/><path d="M1683.31 182.664h-3.721" class="C D E F"/><path d="M1671.638 182.664h-3.721" class="C D E F"/><path d="M1660.514 182.664h-3.721" class="C D E F"/><path d="M1648.329 182.664h-3.721" class="C D E F"/><path d="M1636.657 182.664h-3.721" class="C D E F"/><path d="M1625.533 182.664h-3.721" class="C D E F"/><path d="M1614.292 182.664h-3.721" class="C D E F"/><path d="M1602.62 182.664h-3.721" class="C D E F"/><path d="M1591.496 182.664h-3.721" class="C D E F"/><path d="M1579.532 182.664h-3.721" class="C D E F"/><path d="M1567.86 182.664h-3.721" class="C D E F"/><path d="M1556.737 182.664h-3.721" class="C D E F"/><path d="M1545.495 182.664h-3.721" class="C D E F"/><path d="M1533.823 182.664h-3.721" class="C D E F"/><path d="M1522.7 182.664h-3.721" class="C D E F"/><path d="M1510.514 182.664h-3.721" class="C D E F"/><path d="M1498.842 182.664h-3.721" class="C D E F"/><path d="M1487.719 182.664h-3.721" class="C D E F"/><path d="M1476.477 182.664h-3.721" class="C D E F"/><path d="M1464.805 182.664h-3.721" class="C D E F"/><path d="M1453.682 182.664h-3.721" class="C D E F"/><path d="M1441.718 182.664h-3.721" class="C D E F"/><path d="M1430.046 182.664h-3.721" class="C D E F"/><path d="M1418.922 182.664h-3.721" class="C D E F"/><path d="M1407.681 182.664h-3.721" class="C D E F"/><path d="M1396.009 182.664h-3.721" class="C D E F"/><path d="M1384.885 182.664h-3.721" class="C D E F"/><path d="M1372.7 182.664h-3.721" class="C D E F"/><path d="M1361.028 182.664h-3.721" class="C D E F"/><path d="M1349.904 182.664h-3.721" class="C D E F"/><path d="M1338.663 182.664h-3.721" class="C D E F"/><path d="M1326.991 182.664h-3.721" class="C D E F"/><path d="M1315.867 182.664h-3.721" class="C D E F"/><path d="M1304.502 182.664h-3.721" class="C D E F"/><path d="M1292.83 182.664h-3.721" class="C D E F"/><path d="M1281.707 182.664h-3.721" class="C D E F"/><path d="M1270.465 182.664h-3.721" class="C D E F"/><path d="M1258.793 182.664h-3.721" class="C D E F"/><path d="M1247.67 182.664h-3.721" class="C D E F"/><path d="M1235.484 182.664h-3.721" class="C D E F"/><path d="M1223.812 182.664h-3.721" class="C D E F"/><path d="M1212.689 182.664h-3.721" class="C D E F"/><path d="M1201.447 182.664h-3.721" class="C D E F"/><path d="M1189.775 182.664h-3.721" class="C D E F"/><path d="M1178.652 182.664h-3.721" class="C D E F"/><path d="M1166.688 182.664h-3.721" class="C D E F"/><path d="M1155.016 182.664h-3.721" class="C D E F"/><path d="M1143.892 182.664h-3.721" class="C D E F"/><path d="M1132.651 182.664h-3.721" class="C D E F"/><path d="M1120.979 182.664h-3.721" class="C D E F"/><path d="M1109.855 182.664h-3.721" class="C D E F"/><path d="M1844.92 85.838l-.243 29.141" class="C"/><path d="M1102.555 85.838l.243 29.141" class="C"/><path d="M2217.938 71.79v104.849" class="C D J K"/><path d="M2217.938 94.496v4.796" class="D E G H"/><path d="M2217.938 105.728v4.796" class="D E G H"/><path d="M2217.938 117.202v4.796" class="D E G H"/><path d="M2217.938 129.035v4.796" class="D E G H"/><path d="M2217.938 141.711v4.796" class="D E G H"/><path d="M2217.938 153.63v4.796" class="D E G H"/><path d="M2217.938 165.164v4.796" class="D E G H"/><path d="M2217.938 176.638v4.796" class="D E G H"/><path d="M2032.71 114.98h-185.348" class="C"/><path d="M1847.119 85.838s77.831 18.891 185.777 19.032" class="C"/><path d="M1869.825 90.452v24.527m21.249-20.399v20.642" class="C"/><path d="M1913.537 97.178v18.045m21.249-15.591v15.834" class="C"/><path d="M1957.25 101.756v13.709m21.249-12.242v11.927" class="C"/><path d="M2000.962 104.189v11.048m21.249-10.912v10.854" class="C"/><path d="M2032.71 114.98h185.348" class="C"/><path d="M2218.301 85.838s-77.831 18.891-185.777 19.032" class="C E"/><path d="M2195.595 90.452v24.527m-21.249-20.399v20.642" class="C"/><path d="M2151.883 97.178v18.045m-21.249-15.591v15.834" class="C"/><path d="M2108.171 101.756v13.709m-21.249-12.242v11.927" class="C"/><path d="M2064.459 104.189v11.048m-21.249-10.912v10.854" class="C"/><path d="M2403.893 114.98h-185.834" class="C"/><path d="M2218.301 85.838s77.831 18.891 185.777 19.032" class="C E"/><path d="M2241.007 90.452v24.527m21.249-20.399v20.642" class="C"/><path d="M2284.72 97.178v18.045m21.249-15.591v15.834" class="C"/><path d="M2328.432 101.756v13.709m21.249-12.242v11.927" class="C"/><path d="M2372.144 104.189v11.048m21.249-10.912v10.854" class="C"/><path d="M2403.893 114.98h185.348" class="C"/><path d="M2589.484 85.838s-77.831 18.891-185.777 19.032" class="C"/><path d="M2566.778 90.452v24.527m-21.249-20.399v20.642" class="C"/><path d="M2523.066 97.178v18.045m-21.249-15.591v15.834" class="C"/><path d="M2479.353 101.756v13.709m-21.249-12.242v11.927" class="C"/><path d="M2435.641 104.189v11.048m-21.249-10.912v10.854" class="C"/><path d="M2218.301 85.838l.243 29.141" class="C"/><path d="M2590.463 71.79v104.849" class="C D J K"/><path d="M2590.463 94.496v4.796" class="D E G H"/><path d="M2590.463 105.728v4.796" class="D E G H"/><path d="M2590.463 117.202v4.796" class="D E G H"/><path d="M2590.463 129.035v4.796" class="D E G H"/><path d="M2590.463 141.711v4.796" class="D E G H"/><path d="M2590.463 153.63v4.796" class="D E G H"/><path d="M2590.463 165.164v4.796" class="D E G H"/><path d="M2590.463 176.638v4.796" class="D E G H"/><path d="M1845.899 94.496v4.796" class="D E G H"/><path d="M1845.899 105.728v4.796" class="D E G H"/><path d="M1845.899 117.202v4.796" class="D E G H"/><path d="M1845.899 129.035v4.796" class="D E G H"/><path d="M1845.899 141.711v4.796" class="D E G H"/><path d="M1845.899 153.63v4.796" class="D E G H"/><path d="M1845.899 165.164v4.796" class="D E G H"/><path d="M1845.741 180.745h744.983" class="C L"/><path d="M2588.053 182.664h-3.721" class="C D E F"/><path d="M2576.93 182.664h-3.721" class="C D E F"/><path d="M2565.688 182.664h-3.721" class="C D E F"/><path d="M2554.016 182.664h-3.721" class="C D E F"/><path d="M2542.893 182.664h-3.721" class="C D E F"/><path d="M2530.707 182.664h-3.721" class="C D E F"/><path d="M2519.035 182.664h-3.721" class="C D E F"/><path d="M2507.912 182.664h-3.721" class="C D E F"/><path d="M2496.67 182.664h-3.721" class="C D E F"/><path d="M2484.998 182.664h-3.721" class="C D E F"/><path d="M2473.875 182.664h-3.721" class="C D E F"/><path d="M2461.911 182.664h-3.721" class="C D E F"/><path d="M2450.239 182.664h-3.721" class="C D E F"/><path d="M2439.115 182.664h-3.721" class="C D E F"/><path d="M2427.874 182.664h-3.721" class="C D E F"/><path d="M2416.202 182.664h-3.721" class="C D E F"/><path d="M2405.078 182.664h-3.721" class="C D E F"/><path d="M2392.893 182.664h-3.721" class="C D E F"/><path d="M2381.221 182.664h-3.721" class="C D E F"/><path d="M2370.097 182.664h-3.721" class="C D E F"/><path d="M2358.856 182.664h-3.721" class="C D E F"/><path d="M2347.184 182.664h-3.721" class="C D E F"/><path d="M2336.06 182.664h-3.721" class="C D E F"/><path d="M2324.096 182.664h-3.721" class="C D E F"/><path d="M2312.424 182.664h-3.721" class="C D E F"/><path d="M2301.301 182.664h-3.721" class="C D E F"/><path d="M2290.06 182.664h-3.721" class="C D E F"/><path d="M2278.388 182.664h-3.721" class="C D E F"/><path d="M2267.264 182.664h-3.721" class="C D E F"/><path d="M2255.078 182.664h-3.721" class="C D E F"/><path d="M2243.406 182.664h-3.721" class="C D E F"/><path d="M2232.283 182.664h-3.721" class="C D E F"/><path d="M2221.042 182.664h-3.721" class="C D E F"/><path d="M2209.37 182.664h-3.721" class="C D E F"/><path d="M2198.246 182.664h-3.721" class="C D E F"/><path d="M2186.282 182.664h-3.721" class="C D E F"/><path d="M2174.61 182.664h-3.721" class="C D E F"/><path d="M2163.486 182.664h-3.721" class="C D E F"/><path d="M2152.245 182.664h-3.721" class="C D E F"/><path d="M2140.573 182.664h-3.721" class="C D E F"/><path d="M2129.449 182.664h-3.721" class="C D E F"/><path d="M2117.264 182.664h-3.721" class="C D E F"/><path d="M2105.592 182.664h-3.721" class="C D E F"/><path d="M2094.468 182.664h-3.721" class="C D E F"/><path d="M2083.227 182.664h-3.721" class="C D E F"/><path d="M2071.555 182.664h-3.721" class="C D E F"/><path d="M2060.431 182.664h-3.721" class="C D E F"/><path d="M2049.066 182.664h-3.721" class="C D E F"/><path d="M2037.394 182.664h-3.721" class="C D E F"/><path d="M2026.271 182.664h-3.721" class="C D E F"/><path d="M2015.03 182.664h-3.721" class="C D E F"/><path d="M2003.358 182.664h-3.721" class="C D E F"/><path d="M1992.234 182.664h-3.721" class="C D E F"/><path d="M1980.048 182.664h-3.721" class="C D E F"/><path d="M1968.376 182.664h-3.721" class="C D E F"/><path d="M1957.253 182.664h-3.721" class="C D E F"/><path d="M1946.012 182.664h-3.721" class="C D E F"/><path d="M1934.34 182.664h-3.721" class="C D E F"/><path d="M1923.216 182.664h-3.721" class="C D E F"/><path d="M1911.252 182.664h-3.721" class="C D E F"/><path d="M1899.58 182.664h-3.721" class="C D E F"/><path d="M1888.456 182.664h-3.721" class="C D E F"/><path d="M1877.215 182.664h-3.721" class="C D E F"/><path d="M1865.543 182.664h-3.721" class="C D E F"/><path d="M1854.42 182.664h-3.721" class="C D E F"/><path d="M2589.484 85.838l-.243 29.141" class="C"/><path d="M1847.119 85.838l.243 29.141" class="C"/></g></g></svg>